<?xml version="1.0" encoding="UTF-8"?>
<svg version="1.1" xmlns="http://www.w3.org/2000/svg" width="500" height="500">
<path d="M0 0 C6.1055471 -0.02464513 12.21106551 -0.04283371 18.31665039 -0.05493164 C20.39543156 -0.05997288 22.47420916 -0.06680574 24.55297852 -0.07543945 C27.53402586 -0.08751422 30.51502649 -0.09323024 33.49609375 -0.09765625 C34.89921059 -0.10539818 34.89921059 -0.10539818 36.33067322 -0.11329651 C37.19149002 -0.11337204 38.05230682 -0.11344757 38.93920898 -0.11352539 C40.08171364 -0.11685631 40.08171364 -0.11685631 41.24729919 -0.12025452 C43 0 43 0 44 1 C45.73603078 1.31066013 47.48211511 1.56541852 49.23046875 1.796875 C50.33277832 1.94825928 51.43508789 2.09964355 52.57080078 2.25561523 C53.76431152 2.41876221 54.95782227 2.58190918 56.1875 2.75 C98.18045245 8.74621846 147.35295089 22.3049621 180 51 C180 51.66 180 52.32 180 53 C180.53625 53.2475 181.0725 53.495 181.625 53.75 C184.5823982 55.30652537 187.29724051 57.03435673 190 59 C190 59.66 190 60.32 190 61 C190.99 61.33 191.98 61.66 193 62 C193 62.66 193 63.32 193 64 C193.57234375 64.2475 194.1446875 64.495 194.734375 64.75 C197.35010611 66.19316199 199.14773456 67.88216222 201.25 70 C202.30960937 71.051875 202.30960937 71.051875 203.390625 72.125 C205 74 205 74 205 76 C205.66 76 206.32 76 207 76 C207 76.66 207 77.32 207 78 C207.99 78.33 208.98 78.66 210 79 C211.61455272 80.88413859 213.09594238 82.75609901 214.5625 84.75 C215.46300218 85.95352884 216.36405821 87.15664346 217.265625 88.359375 C217.72259766 88.97232422 218.17957031 89.58527344 218.65039062 90.21679688 C219.87818854 91.83905375 221.14792596 93.42935297 222.421875 95.015625 C247.70970016 126.58408648 263.88310793 165.00254768 271.9375 204.4375 C272.14930908 205.47390625 272.36111816 206.5103125 272.5793457 207.578125 C273.65171176 213.15607335 274.22335311 218.32141633 274 224 C274.66 224 275.32 224 276 224 C276 238.19 276 252.38 276 267 C275.34 267 274.68 267 274 267 C274.0928125 268.918125 274.0928125 268.918125 274.1875 270.875 C274.1009772 291.55394809 267.49975906 313.52641358 261 333 C260.43345703 334.80597656 260.43345703 334.80597656 259.85546875 336.6484375 C257.18497597 345.08242135 253.89953644 353.05272621 250 361 C249.41997501 362.22107033 248.84056943 363.44243505 248.26171875 364.6640625 C241.7265477 378.26894365 234.28054771 392.05870804 225 404 C224.34 404 223.68 404 223 404 C222.7421875 404.56203125 222.484375 405.1240625 222.21875 405.703125 C220.85830223 408.26704579 219.27211038 410.45226365 217.5 412.75 C216.8915625 413.54921875 216.283125 414.3484375 215.65625 415.171875 C215.1096875 415.77515625 214.563125 416.3784375 214 417 C213.34 417 212.68 417 212 417 C212 417.66 212 418.32 212 419 C211.34 419 210.68 419 210 419 C209.67 419.99 209.34 420.98 209 422 C208.34 422 207.68 422 207 422 C207 422.66 207 423.32 207 424 C206.34 424 205.68 424 205 424 C204.731875 424.639375 204.46375 425.27875 204.1875 425.9375 C203 428 203 428 200 429 C200 429.66 200 430.32 200 431 C199.34 431 198.68 431 198 431 C197.67 431.99 197.34 432.98 197 434 C194.96973301 435.71367314 192.94918866 437.30605331 190.8125 438.875 C189.67224575 439.72531503 188.53291873 440.57687489 187.39453125 441.4296875 C186.83072754 441.84831055 186.26692383 442.26693359 185.68603516 442.69824219 C183.98417886 444.01221522 182.37764328 445.40269463 180.76171875 446.8203125 C178 449 178 449 175 449 C175 449.66 175 450.32 175 451 C170.61538462 454 170.61538462 454 168 454 C168 454.66 168 455.32 168 456 C165.44569752 457.68269216 162.90159674 459.23432247 160.25 460.75 C159.47446777 461.19956055 158.69893555 461.64912109 157.89990234 462.11230469 C152.62373211 465.14378368 147.27629727 467.96829552 141.796875 470.6171875 C137.84562373 472.57073911 134.01623782 474.72995253 130.1796875 476.8984375 C128 478 128 478 126 478 C125.94199219 478.77214844 125.88398438 479.54429687 125.82421875 480.33984375 C125 483 125 483 122.76953125 484.44140625 C116.10165705 486.96938497 109.42326614 489.16787226 102.5390625 491.03515625 C100.27371604 491.6527507 98.01698273 492.30347386 95.7734375 492.99609375 C74.76716543 499.43835141 54.50974939 500.53785004 32.625 500.25 C29.93101316 500.22754197 27.23700043 500.21135907 24.54296875 500.1953125 C18.02831723 500.15182453 11.51423052 500.08537097 5 500 C5 499.34 5 498.68 5 498 C3.80117187 498.04511719 2.60234375 498.09023438 1.3671875 498.13671875 C-5.15955898 498.13034746 -11.4654061 496.9516111 -17.875 495.8125 C-19.15769775 495.58691406 -20.44039551 495.36132812 -21.76196289 495.12890625 C-63.61789054 487.56410728 -100.193087 468.39710144 -134 443 C-135.54494141 441.85917969 -135.54494141 441.85917969 -137.12109375 440.6953125 C-141.61517962 437.31598428 -141.61517962 437.31598428 -143 436 C-143 435.34 -143 434.68 -143 434 C-143.99 433.67 -144.98 433.34 -146 433 C-146 432.34 -146 431.68 -146 431 C-146.66 431 -147.32 431 -148 431 C-148 430.34 -148 429.68 -148 429 C-148.639375 428.731875 -149.27875 428.46375 -149.9375 428.1875 C-152 427 -152 427 -153 424 C-153.66 424 -154.32 424 -155 424 C-155 423.34 -155 422.68 -155 422 C-155.99 421.67 -156.98 421.34 -158 421 C-158 420.34 -158 419.68 -158 419 C-158.66 419 -159.32 419 -160 419 C-161.9453125 416.8828125 -161.9453125 416.8828125 -164.125 414.125 C-164.84945312 413.22007812 -165.57390625 412.31515625 -166.3203125 411.3828125 C-168 409 -168 409 -168 407 C-168.66 407 -169.32 407 -170 407 C-170 406.01 -170 405.02 -170 404 C-170.99 403.67 -171.98 403.34 -173 403 C-174.33105469 401.42456055 -174.33105469 401.42456055 -175.671875 399.38671875 C-176.4155835 398.26656372 -176.4155835 398.26656372 -177.17431641 397.1237793 C-177.69429199 396.31980713 -178.21426758 395.51583496 -178.75 394.6875 C-179.55896729 393.44963745 -179.55896729 393.44963745 -180.38427734 392.18676758 C-181.93540568 389.79896295 -183.47124653 387.40217636 -185 385 C-185.65742188 383.96875 -186.31484375 382.9375 -186.9921875 381.875 C-203.65692385 354.44596027 -214.16078972 323.61548007 -219.9375 292.1875 C-220.14914795 291.04990234 -220.3607959 289.91230469 -220.57885742 288.74023438 C-221.84078025 281.42978489 -222.24869109 274.41300424 -222 267 C-222.66 267 -223.32 267 -224 267 C-224 252.81 -224 238.62 -224 224 C-223.34 224 -222.68 224 -222 224 C-222.04125 222.76121094 -222.0825 221.52242187 -222.125 220.24609375 C-222.11585015 214.37989446 -221.12147806 208.80659222 -220 203.0625 C-219.78214844 201.94020996 -219.56429687 200.81791992 -219.33984375 199.66162109 C-215.37188146 180.18228711 -209.30707283 161.04287139 -200.25 143.3125 C-199.92 142.65894531 -199.59 142.00539062 -199.25 141.33203125 C-195.27402814 133.49877326 -191.14170675 125.74652559 -187 118 C-186.34 118 -185.68 118 -185 118 C-184.90203125 117.44957031 -184.8040625 116.89914063 -184.703125 116.33203125 C-183.22210319 111.41997557 -179.82291197 107.23735201 -177 103 C-176.50371094 102.24976562 -176.00742188 101.49953125 -175.49609375 100.7265625 C-174.39008658 99.10882067 -173.20312633 97.54687671 -172 96 C-171.34 96 -170.68 96 -170 96 C-170 95.01 -170 94.02 -170 93 C-169.34 93 -168.68 93 -168 93 C-167.76925781 92.45214844 -167.53851563 91.90429688 -167.30078125 91.33984375 C-159.68767597 77.64539912 -143.29065748 64.35765967 -131 55 C-130.3915625 54.53158691 -129.783125 54.06317383 -129.15625 53.58056641 C-108.42886727 37.72634519 -85.62866197 24.6632954 -61 16 C-60.19884766 15.71479492 -59.39769531 15.42958984 -58.57226562 15.13574219 C-45.56144769 10.53214651 -32.49422107 6.88799602 -19 4 C-17.85144531 3.7525 -16.70289063 3.505 -15.51953125 3.25 C-10.25639361 2.20463197 -5.36424739 1.79757557 0 2 C0 1.34 0 0.68 0 0 Z " fill="#4BBA95" transform="translate(224,0)"/>
<path d="M0 0 C1.46875 1.71459961 1.46875 1.71459961 2.875 3.96484375 C3.39239746 4.78484863 3.90979492 5.60485352 4.44287109 6.44970703 C5.2136499 7.71210205 5.2136499 7.71210205 6 9 C6.46615723 9.74491699 6.93231445 10.48983398 7.41259766 11.25732422 C19.54180525 30.91619244 28.13862714 52.25201753 35.97143555 73.9230957 C38.02841554 79.5905331 40.33523217 85.06484378 42.87329102 90.53393555 C44.20034665 93.43850521 45.35659651 96.39398376 46.5 99.375 C48.38111282 103.97327578 50.12799867 106.90239894 54 110 C54.12745605 109.28247559 54.25491211 108.56495117 54.38623047 107.82568359 C55.45129406 102.92232399 57.357906 98.3123162 59.125 93.625 C59.73722412 91.99655151 59.73722412 91.99655151 60.36181641 90.33520508 C62.98354195 83.44945585 65.85025844 76.82481385 69.0703125 70.19921875 C71.72687546 64.57847588 73.94324428 58.77030463 76.25 53 C93.30930381 10.69069619 93.30930381 10.69069619 104 0 C112.14188883 0.07538786 120.34712738 2.03810439 128.33251953 3.51123047 C131.27079464 4.04961842 134.21146592 4.57367817 137.15234375 5.09765625 C144.11165934 6.34688266 151.05807485 7.65768592 158 9 C159.1761084 9.22558594 160.3522168 9.45117188 161.56396484 9.68359375 C185.75147104 14.40570995 204.78807427 19.89802795 219.9375 40.3125 C228.19339953 52.9206944 231.09367831 66.66712057 231.3125 81.5 C231.33030518 82.29051758 231.34811035 83.08103516 231.36645508 83.89550781 C231.35851171 89.55362944 231.35851171 89.55362944 229.60229492 91.74023438 C228 93 228 93 226 93 C226 93.66 226 94.32 226 95 C225.34 95 224.68 95 224 95 C223.67 95.99 223.34 96.98 223 98 C220.96973301 99.71367314 218.94918866 101.30605331 216.8125 102.875 C215.67224575 103.72531503 214.53291873 104.57687489 213.39453125 105.4296875 C212.83072754 105.84831055 212.26692383 106.26693359 211.68603516 106.69824219 C209.98417886 108.01221522 208.37764328 109.40269463 206.76171875 110.8203125 C204 113 204 113 201 113 C201 113.66 201 114.32 201 115 C196.61538462 118 196.61538462 118 194 118 C194 118.66 194 119.32 194 120 C191.44569752 121.68269216 188.90159674 123.23432247 186.25 124.75 C185.47446777 125.19956055 184.69893555 125.64912109 183.89990234 126.11230469 C178.62373211 129.14378368 173.27629727 131.96829552 167.796875 134.6171875 C163.84562373 136.57073911 160.01623782 138.72995253 156.1796875 140.8984375 C154 142 154 142 152 142 C151.94199219 142.77214844 151.88398438 143.54429687 151.82421875 144.33984375 C151 147 151 147 148.76953125 148.44140625 C142.10165705 150.96938497 135.42326614 153.16787226 128.5390625 155.03515625 C126.27371604 155.6527507 124.01698273 156.30347386 121.7734375 156.99609375 C100.76716543 163.43835141 80.50974939 164.53785004 58.625 164.25 C55.93101316 164.22754197 53.23700043 164.21135907 50.54296875 164.1953125 C44.02831723 164.15182453 37.51423052 164.08537097 31 164 C31 163.34 31 162.68 31 162 C29.80117187 162.04511719 28.60234375 162.09023438 27.3671875 162.13671875 C20.84044102 162.13034746 14.5345939 160.9516111 8.125 159.8125 C6.84230225 159.58691406 5.55960449 159.36132812 4.23803711 159.12890625 C-37.61789054 151.56410728 -74.193087 132.39710144 -108 107 C-109.54494141 105.85917969 -109.54494141 105.85917969 -111.12109375 104.6953125 C-115.61517962 101.31598428 -115.61517962 101.31598428 -117 100 C-117 99.34 -117 98.68 -117 98 C-117.99 97.67 -118.98 97.34 -120 97 C-120 96.34 -120 95.68 -120 95 C-120.66 95 -121.32 95 -122 95 C-122 94.34 -122 93.68 -122 93 C-122.9590625 92.5359375 -122.9590625 92.5359375 -123.9375 92.0625 C-126 91 -126 91 -127 90 C-128.53588269 74.13652596 -125.87403536 53.92600992 -116 41 C-94.88881978 15.66658374 -54.48119047 9.29617462 -23.6953125 3.7265625 C-20.24907507 3.04897248 -16.89121907 2.22192466 -13.5 1.3125 C-4.47399846 -0.92565485 -4.47399846 -0.92565485 0 0 Z " fill="#1E1E1E" transform="translate(198,336)"/>
<path d="M0 0 C0.95390625 -0.00322266 1.9078125 -0.00644531 2.890625 -0.00976562 C12.70093899 0.06517427 12.70093899 0.06517427 16.75 2.3125 C17.96484375 4.91015625 17.96484375 4.91015625 18.6875 8.375 C18.99774173 9.74560243 19.31183295 11.11533684 19.62890625 12.484375 C19.8005127 13.24943359 19.97211914 14.01449219 20.14892578 14.80273438 C21.0501997 18.56597396 22.141883 22.26948072 23.21801758 25.98583984 C28.95155594 45.83021031 33.73886224 65.86845939 36.75 86.3125 C40.73295965 81.41121721 40.3027556 76.01729971 40.4375 70 C40.47166016 68.97326172 40.50582031 67.94652344 40.54101562 66.88867188 C40.62323409 64.36339037 40.69246936 61.8384446 40.75 59.3125 C42.81132142 59.20385055 44.87431321 59.12661679 46.9375 59.0625 C48.08605469 59.01609375 49.23460937 58.9696875 50.41796875 58.921875 C54.49182802 59.39946694 55.92969112 60.37041613 58.75 63.3125 C61.82206442 67.99437983 62.22717526 72.21905637 62.125 77.6875 C62.11557373 78.47406982 62.10614746 79.26063965 62.09643555 80.07104492 C61.79768945 91.9316221 60.53145355 109.36923302 51.94921875 118.15625 C49.13833206 119.63408741 47.15745801 119.61276636 44 119.5 C43.01515625 119.47292969 42.0303125 119.44585937 41.015625 119.41796875 C40.26796875 119.38316406 39.5203125 119.34835938 38.75 119.3125 C38.63785156 119.98152344 38.52570313 120.65054688 38.41015625 121.33984375 C35.83177753 133.89469438 29.05072723 148.25272425 19.75 157.3125 C18.76 157.6425 17.77 157.9725 16.75 158.3125 C15.17336504 159.90582129 15.17336504 159.90582129 13.625 161.875 C9.75297765 166.43080503 5.595768 170.78147526 0.75 174.3125 C-0.24 174.3125 -1.23 174.3125 -2.25 174.3125 C-2.25 183.8825 -2.25 193.4525 -2.25 203.3125 C1.05 204.9625 4.35 206.6125 7.75 208.3125 C11.375 211.625 11.375 211.625 13.75 214.3125 C12.47139815 217.97552152 10.71484992 221.03979776 8.578125 224.26928711 C-1.62739145 239.73702298 -8.81456799 256.75762803 -15.54418945 273.96118164 C-18.34448617 281.11514721 -21.32611819 288.16368709 -24.4375 295.1875 C-28.81067578 305.08280178 -32.65508754 315.11104312 -36.25 325.3125 C-41.33171819 323.61859394 -42.93382372 318.9279872 -45.25 314.3125 C-46.87025315 310.47404314 -48.27097627 306.55940794 -49.66015625 302.6328125 C-51.23231538 298.24849609 -53.04070581 293.97332247 -54.84692383 289.68115234 C-56.36553642 286.03510804 -57.8379857 282.37178458 -59.30078125 278.703125 C-67.45940914 258.13650838 -67.45940914 258.13650838 -77.25 238.3125 C-77.62640625 237.6225293 -78.0028125 236.93255859 -78.390625 236.22167969 C-83.10227174 227.45322485 -83.10227174 227.45322485 -88.578125 219.1640625 C-90.25 216.3125 -90.25 216.3125 -90.2890625 213.70703125 C-88.93636138 210.58971627 -87.27021594 209.12176686 -84.625 207 C-83.36816406 205.95392578 -83.36816406 205.95392578 -82.0859375 204.88671875 C-78.60070861 202.95208067 -76.1759899 203.02653283 -72.25 203.3125 C-72.38170939 192.75180192 -73.17677873 183.76367048 -77.19140625 173.9375 C-78.25 171.3125 -78.25 171.3125 -78.25 169.3125 C-79.32121094 168.94898438 -79.32121094 168.94898438 -80.4140625 168.578125 C-83.64565032 167.13592878 -85.92083541 165.34050685 -88.625 163.0625 C-89.58019531 162.258125 -90.53539062 161.45375 -91.51953125 160.625 C-92.87111328 159.4803125 -92.87111328 159.4803125 -94.25 158.3125 C-94.97574219 157.735 -95.70148438 157.1575 -96.44921875 156.5625 C-97.37154297 155.82 -97.37154297 155.82 -98.3125 155.0625 C-99.10333984 154.43601562 -99.10333984 154.43601562 -99.91015625 153.796875 C-101.67828153 151.83801901 -102.30965522 149.767022 -103.25 147.3125 C-104.14897058 145.8915465 -105.08810063 144.49532945 -106.0625 143.125 C-111.42427572 135.18114064 -115.03816448 129.08573956 -114.25 119.3125 C-114.98605469 119.37050781 -115.72210938 119.42851562 -116.48046875 119.48828125 C-124.42648933 119.85566661 -124.42648933 119.85566661 -128.1875 117.375 C-137.35183892 103.76734524 -139.75190731 84.9154891 -137.9765625 68.8359375 C-137.32022669 65.52949105 -136.29997998 63.37459634 -134.1875 60.75 C-129.18603733 58.30247571 -124.37600394 59.60383202 -119.25 61.3125 C-118.91027199 64.12435594 -118.57809788 66.93678236 -118.25 69.75 C-118.15460938 70.53310547 -118.05921875 71.31621094 -117.9609375 72.12304688 C-117.33488869 77.55625619 -117.16240429 82.84324263 -117.25 88.3125 C-114.94 88.3125 -112.63 88.3125 -110.25 88.3125 C-110.26160156 87.72726563 -110.27320313 87.14203125 -110.28515625 86.5390625 C-110.350485 80.32349854 -110.14407422 74.14240495 -109.8125 67.9375 C-109.77326416 67.16486816 -109.73402832 66.39223633 -109.69360352 65.59619141 C-109.65162842 64.85546387 -109.60965332 64.11473633 -109.56640625 63.3515625 C-109.52974854 62.69365723 -109.49309082 62.03575195 -109.45532227 61.35791016 C-109.35368774 60.34543213 -109.35368774 60.34543213 -109.25 59.3125 C-109.17056152 58.44407471 -109.09112305 57.57564941 -109.00927734 56.6809082 C-108.25 54.3125 -108.25 54.3125 -106.30102539 53.16235352 C-105.47078857 52.90381592 -104.64055176 52.64527832 -103.78515625 52.37890625 C-98.166622 50.38433158 -93.60782786 47.57721028 -88.6875 44.25 C-86.92850802 43.08445036 -85.16939141 41.9190888 -83.41015625 40.75390625 C-82.54148926 40.17398926 -81.67282227 39.59407227 -80.77783203 38.99658203 C-77.0784439 36.53199064 -73.35570298 34.10435244 -69.625 31.6875 C-68.94139404 31.24422363 -68.25778809 30.80094727 -67.5534668 30.34423828 C-60.93721349 26.07443334 -54.22318392 21.96990431 -47.48828125 17.890625 C-44.82538495 16.27718434 -42.17611642 14.64591048 -39.54296875 12.984375 C-26.85961924 5.01114015 -15.19404471 -0.26088676 0 0 Z " fill="#F1B181" transform="translate(288.25,120.6875)"/>
<path d="M0 0 C0.92619141 0.72425171 0.92619141 0.72425171 1.87109375 1.46313477 C7.10052776 5.59448169 11.01769669 10.69554032 15 16 C15.57621094 16.76054688 16.15242187 17.52109375 16.74609375 18.3046875 C30.8700757 37.68031169 40.93296699 59.56778827 38 84 C34.43905244 100.56094756 34.43905244 100.56094756 31 104 C29.14712498 104.07226502 27.29166122 104.0838122 25.4375 104.0625 C23.91962891 104.04896484 23.91962891 104.04896484 22.37109375 104.03515625 C21.58863281 104.02355469 20.80617188 104.01195312 20 104 C20.02094727 104.63502441 20.04189453 105.27004883 20.06347656 105.92431641 C20.14704581 108.82438076 20.19878774 111.72419116 20.25 114.625 C20.28351563 115.62402344 20.31703125 116.62304688 20.3515625 117.65234375 C20.432372 123.75346065 20.13373743 127.37715623 16 132 C15.67 132 15.34 132 15 132 C14.88785156 131.05769531 14.77570313 130.11539063 14.66015625 129.14453125 C11.28038282 103.76092862 4.00659689 78.58475656 -3 54 C-3.19867676 53.30229492 -3.39735352 52.60458984 -3.60205078 51.88574219 C-4.0668197 50.25681454 -4.53320671 48.62834869 -5 47 C-29.18887023 41.69443498 -48.38065704 50.63419878 -68.28613281 63.33251953 C-70.01183705 64.44513169 -71.73123446 65.56691625 -73.44921875 66.69140625 C-77.20113078 69.14421743 -81.0041659 71.51109439 -84.8125 73.875 C-90.47782314 77.39784099 -96.09446477 80.98858339 -101.6875 84.625 C-103.79083558 85.98696849 -105.89503858 87.347577 -108 88.70703125 C-109.3060086 89.5513454 -110.61075595 90.39761459 -111.9140625 91.24609375 C-113.66553152 92.38268535 -115.42499183 93.5056283 -117.1875 94.625 C-118.17105469 95.25664062 -119.15460938 95.88828125 -120.16796875 96.5390625 C-123.16649309 98.08588747 -125.6630126 98.63416731 -129 99 C-129.02505615 99.6391333 -129.0501123 100.2782666 -129.07592773 100.93676758 C-129.19357147 103.89546745 -129.31551778 106.85397594 -129.4375 109.8125 C-129.47681641 110.81732422 -129.51613281 111.82214844 -129.55664062 112.85742188 C-129.83831457 119.59592939 -130.32489406 126.28952975 -131 133 C-133.31 133 -135.62 133 -138 133 C-138.33808357 129.62545836 -138.66961318 126.25030319 -139 122.875 C-139.09539062 121.92367187 -139.19078125 120.97234375 -139.2890625 119.9921875 C-139.74437277 115.30899618 -140.12693246 110.7123674 -140 106 C-142.97 105.34 -145.94 104.68 -149 104 C-149.0503566 99.45086181 -149.08615885 94.90189434 -149.10986328 90.35253906 C-149.1197703 88.81279669 -149.13329969 87.27307233 -149.15087891 85.73339844 C-149.46589124 57.38228866 -144.57570582 28.84021129 -124.8125 7.1875 C-92.59691167 -22.02430387 -34.66759623 -27.99818381 0 0 Z " fill="#50260E" transform="translate(309,76)"/>
<path d="M0 0 C5.03049548 -0.78059413 5.03049548 -0.78059413 8 0 C9.54199219 1.69628906 9.54199219 1.69628906 10.921875 3.953125 C11.43250488 4.77482178 11.94313477 5.59651855 12.46923828 6.44311523 C13.22696533 7.70877319 13.22696533 7.70877319 14 9 C14.46519043 9.74515869 14.93038086 10.49031738 15.40966797 11.25805664 C27.5583945 30.90028971 36.14067783 52.25769118 43.97143555 73.9230957 C46.02841554 79.5905331 48.33523217 85.06484378 50.87329102 90.53393555 C52.20034665 93.43850521 53.35659651 96.39398376 54.5 99.375 C56.38111282 103.97327578 58.12799867 106.90239894 62 110 C62.19118408 108.92371338 62.19118408 108.92371338 62.38623047 107.82568359 C63.45129406 102.92232399 65.357906 98.3123162 67.125 93.625 C67.53314941 92.53936768 67.94129883 91.45373535 68.36181641 90.33520508 C70.98354195 83.44945585 73.85025844 76.82481385 77.0703125 70.19921875 C79.72687546 64.57847588 81.94324428 58.77030463 84.25 53 C101.30930381 10.69069619 101.30930381 10.69069619 112 0 C119.3785003 0.2010912 126.75060776 1.71703196 134 3 C133.67 3.66 133.34 4.32 133 5 C130.35139573 5.59355614 127.70802678 5.74209269 125 6 C124.96261719 6.795271 124.92523438 7.59054199 124.88671875 8.40991211 C124.29438523 18.60806612 122.7425973 28.50881804 121 38.5625 C120.72336472 40.19065446 120.44731997 41.81890937 120.171875 43.44726562 C119.17540135 49.31187817 118.16679072 55.16604638 117 61 C112.71 60.67 108.42 60.34 104 60 C104 60.66 104 61.32 104 62 C104.66 62 105.32 62 106 62 C106.86916887 63.40751221 107.71985149 64.8264521 108.5625 66.25 C109.03816406 67.03890625 109.51382813 67.8278125 110.00390625 68.640625 C111 71 111 71 110.75390625 73.1484375 C108.78544892 77.98288712 104.8191044 81.15701914 100.87890625 84.375 C96.3296114 88.30952528 92.27047605 92.77899293 88.1875 97.1875 C87.39811035 98.03852295 87.39811035 98.03852295 86.59277344 98.90673828 C83.4865959 102.28743732 80.56065923 105.74062281 77.75 109.375 C74.25660497 113.84683555 70.39716434 117.43522068 66 121 C64.83276574 121.97848999 63.66604064 122.95758791 62.5 123.9375 C61.675 124.618125 60.85 125.29875 60 126 C56.63820226 124.55922954 54.40843732 122.75249979 52 120 C52 119.34 52 118.68 52 118 C51.38125 117.9175 50.7625 117.835 50.125 117.75 C48 117 48 117 46.875 115 C46.58625 114.34 46.2975 113.68 46 113 C45.01 112.505 45.01 112.505 44 112 C44 111.34 44 110.68 44 110 C43.40832031 109.74605469 42.81664062 109.49210937 42.20703125 109.23046875 C39.7569027 107.86446788 38.4640418 106.47063789 36.6875 104.3125 C34.39312518 101.5925162 32.06448469 99.02901561 29.5 96.5625 C26.26753127 93.38762537 23.56689768 89.94908181 20.83203125 86.34375 C17.27545351 81.79375716 13.46520728 77.32671249 9.26171875 73.359375 C8 72 8 72 8.0625 70.125 C9.30182609 67.31586087 10.9310523 65.25703385 13 63 C13.66 63 14.32 63 15 63 C15 62.34 15 61.68 15 61 C11.04 61 7.08 61 3 61 C2.18572061 56.64615929 1.37351337 52.29194921 0.5625 47.9375 C0.33240234 46.70837891 0.10230469 45.47925781 -0.13476562 44.21289062 C-0.35712891 43.01728516 -0.57949219 41.82167969 -0.80859375 40.58984375 C-1.01282959 39.49534912 -1.21706543 38.40085449 -1.42749023 37.27319336 C-2.72457675 29.8573985 -3.21219746 22.76325552 -3.25 15.25 C-3.270625 14.20972656 -3.29125 13.16945313 -3.3125 12.09765625 C-3.32023438 10.60298828 -3.32023438 10.60298828 -3.328125 9.078125 C-3.3374707 8.17481445 -3.34681641 7.27150391 -3.35644531 6.34082031 C-2.93323592 3.56155207 -2.10693835 2.77316594 0 1 C0 0.67 0 0.34 0 0 Z " fill="#494A54" transform="translate(190,336)"/>
<path d="M0 0 C0 1.32 0 2.64 0 4 C0.94746094 4.23783203 0.94746094 4.23783203 1.9140625 4.48046875 C12.77011653 7.31180273 23.87887567 10.250368 33 17 C33 17.66 33 18.32 33 19 C37.13784448 17.4152936 40.6621227 15.64518931 44.3125 13.125 C52.76427734 7.39037612 59.65738682 4.21629039 70 4 C70 2.68 70 1.36 70 0 C77.55668441 0.71968423 81.92398449 4.62539534 87 10 C85.72139815 13.66302152 83.96484992 16.72729776 81.828125 19.95678711 C71.62260855 35.42452298 64.43543201 52.44512803 57.70581055 69.64868164 C54.90551383 76.80264721 51.92388181 83.85118709 48.8125 90.875 C44.43932422 100.77030178 40.59491246 110.79854312 37 121 C31.91828181 119.30609394 30.31617628 114.6154872 28 110 C26.37974685 106.16154314 24.97902373 102.24690794 23.58984375 98.3203125 C22.01768462 93.93599609 20.20929419 89.66082247 18.40307617 85.36865234 C16.88446358 81.72260804 15.4120143 78.05928458 13.94921875 74.390625 C5.79059086 53.82400838 5.79059086 53.82400838 -4 34 C-4.37640625 33.3100293 -4.7528125 32.62005859 -5.140625 31.90917969 C-9.85227174 23.14072485 -9.85227174 23.14072485 -15.328125 14.8515625 C-17 12 -17 12 -17.0078125 9.36328125 C-14.07892008 2.49514204 -7.14557532 -1.06423462 0 0 Z " fill="#CDD2D6" transform="translate(215,325)"/>
<path d="M0 0 C25.74 0 51.48 0 78 0 C78.99 5.61 79.98 11.22 81 17 C81.66 17.33 82.32 17.66 83 18 C82.34 18 81.68 18 81 18 C80.94199219 18.77214844 80.88398438 19.54429687 80.82421875 20.33984375 C80 23 80 23 77.76953125 24.44140625 C71.10165705 26.96938497 64.42326614 29.16787226 57.5390625 31.03515625 C55.27371604 31.6527507 53.01698273 32.30347386 50.7734375 32.99609375 C43.67336536 35.17356218 36.53625742 36.83026995 29.25 38.25 C28.40630859 38.4253125 27.56261719 38.600625 26.69335938 38.78125 C17.5210049 40.48008787 9.77999445 40 0 40 C0 26.8 0 13.6 0 0 Z " fill="#BFCFD9" transform="translate(269,460)"/>
<path d="M0 0 C1.62547642 0.43572657 3.25034813 0.87370898 4.875 1.3125 C5.88433594 1.58449219 6.89367187 1.85648437 7.93359375 2.13671875 C10.63182425 2.89634797 13.27650385 3.74665493 15.9375 4.625 C29.54218044 8.66790032 44.85901093 7.25639563 58 2 C58.99 1.34 59.98 0.68 61 0 C63.04296875 -0.1953125 63.04296875 -0.1953125 65.1875 -0.125 C66.445625 -0.08375 67.70375 -0.0425 69 0 C68.86109398 4.25025618 68.71268006 8.50012842 68.5625 12.75 C68.52318359 13.9565625 68.48386719 15.163125 68.44335938 16.40625 C68.40146484 17.56640625 68.35957031 18.7265625 68.31640625 19.921875 C68.27974854 20.99018555 68.24309082 22.05849609 68.20532227 23.15917969 C67.85971795 27.94092973 67.85971795 27.94092973 67 30 C64.97119886 30.72211566 62.933269 31.42396726 60.8671875 32.03125 C52.51672296 34.85266036 44.31240503 39.15916034 37.6484375 44.93359375 C36 46 36 46 32 46 C30.5625 44.6875 30.5625 44.6875 29 43 C24.2072329 39.74487488 18.95522366 38.05763538 13.53125 36.16210938 C8.10356966 34.20713933 8.10356966 34.20713933 7 32 C5.02111039 31.27306096 3.02045442 30.60183749 1 30 C0.97494385 29.26362305 0.9498877 28.52724609 0.92407227 27.76855469 C0.80795727 24.42886622 0.68530082 21.08944903 0.5625 17.75 C0.52318359 16.59113281 0.48386719 15.43226563 0.44335938 14.23828125 C0.40146484 13.12324219 0.35957031 12.00820313 0.31640625 10.859375 C0.27974854 9.83295898 0.24309082 8.80654297 0.20532227 7.74902344 C0.08309027 5.05051213 0.08309027 5.05051213 -0.58227539 2.69628906 C-0.72012451 2.13651367 -0.85797363 1.57673828 -1 1 C-0.67 0.67 -0.34 0.34 0 0 Z " fill="#E0A37A" transform="translate(216,298)"/>
<path d="M0 0 C7.55668441 0.71968423 11.92398449 4.62539534 17 10 C15.72139815 13.66302152 13.96484992 16.72729776 11.828125 19.95678711 C0.27327242 37.46961056 -7.48891439 57.01276659 -15.02954102 76.50244141 C-16.00326505 79.00840287 -16.99762208 81.50537912 -18 84 C-19.65 84 -21.3 84 -23 84 C-31.94501304 50.85269989 -31.94501304 50.85269989 -27 36 C-25 32.5625 -25 32.5625 -23 30 C-22.34 30 -21.68 30 -21 30 C-24.71750779 25.79759989 -29.31660979 23.00217321 -34 20 C-25.74822102 11.24487776 -14.591989 4.44441322 -2.375 3.8125 C-1.59125 3.874375 -0.8075 3.93625 0 4 C0 2.68 0 1.36 0 0 Z " fill="#F0F5F8" transform="translate(285,325)"/>
<path d="M0 0 C2.859375 1.5234375 2.859375 1.5234375 5.75 3.375 C6.71421875 3.98085938 7.6784375 4.58671875 8.671875 5.2109375 C11 7 11 7 12 10 C11.38125 10.598125 10.7625 11.19625 10.125 11.8125 C4.4677484 17.63614136 4.69681185 24.25850469 4.59960938 32.0300293 C4.74010967 41.20903728 7.23937383 50.05815009 9.54101562 58.89379883 C10 61 10 61 10 64 C11.32 64 12.64 64 14 64 C12.98188857 68.16500129 11.6505175 71.87444337 9.8125 75.75 C5.97686247 83.93805258 3.05132152 92.49677241 0 101 C-5.08041739 99.30652754 -6.68666152 94.6155014 -9 90 C-10.94952309 85.3713489 -12.61356849 80.63850461 -14.28662109 75.90478516 C-15.01282484 73.96575653 -15.82951722 72.08856392 -16.67578125 70.19921875 C-18 67 -18 67 -18 64 C-16.68 64 -15.36 64 -14 64 C-13.90203125 63.42636719 -13.8040625 62.85273438 -13.703125 62.26171875 C-12.88909464 57.63718422 -12.02246532 53.0389056 -10.9765625 48.4609375 C-6.6896983 30.08764337 -6.6896983 30.08764337 -12.78515625 12.69140625 C-14.20338037 9.54942419 -14.14061753 8.2114474 -13 5 C-9.79310345 2 -9.79310345 2 -7 2 C-7 1.34 -7 0.68 -7 0 C-4.23174704 -1.38412648 -2.96026805 -0.83733296 0 0 Z " fill="#87B2CE" transform="translate(252,345)"/>
<path d="M0 0 C5.00582637 1.80279761 9.45307101 3.88377653 13.984375 6.6796875 C12.86587217 14.98856567 10.63498154 22.2318249 7.453125 29.99609375 C6.73189453 31.76049805 6.73189453 31.76049805 5.99609375 33.56054688 C5.24779297 35.38295898 5.24779297 35.38295898 4.484375 37.2421875 C3.49469848 39.66011811 2.50511167 42.07808544 1.515625 44.49609375 C1.07798828 45.56287354 0.64035156 46.62965332 0.18945312 47.72875977 C-0.89095964 50.37441396 -1.95819931 53.02477619 -3.015625 55.6796875 C-4.665625 55.6796875 -6.315625 55.6796875 -8.015625 55.6796875 C-18.07002433 18.42136373 -18.07002433 18.42136373 -10.078125 4.2421875 C-9.3975 3.3965625 -8.716875 2.5509375 -8.015625 1.6796875 C-7.025625 1.6796875 -6.035625 1.6796875 -5.015625 1.6796875 C-2.015625 -0.3203125 -2.015625 -0.3203125 0 0 Z " fill="#CDD2D5" transform="translate(270.015625,353.3203125)"/>
<path d="M0 0 C0 1.32 0 2.64 0 4 C0.94746094 4.23783203 0.94746094 4.23783203 1.9140625 4.48046875 C12.89535638 7.34446615 23.62875754 10.44013028 33 17 C32.505 18.485 32.505 18.485 32 20 C31.34 20 30.68 20 30 20 C30 20.66 30 21.32 30 22 C29.01 22.5775 28.02 23.155 27 23.75 C26.01 24.4925 25.02 25.235 24 26 C23.49830585 29.16926564 23.49830585 29.16926564 24 32 C21.5 30.625 21.5 30.625 19 29 C19 28.34 19 27.68 19 27 C14.42213072 28.78229298 9.8967862 30.5516069 5.5 32.75 C3 34 3 34 1 34 C1 35.98 1 37.96 1 40 C-3.20030872 36.20684764 -5.78574877 31.1636495 -8.68994141 26.3671875 C-9.74733941 24.62937263 -10.82447928 22.90486045 -11.90234375 21.1796875 C-12.56878906 20.08140625 -13.23523438 18.983125 -13.921875 17.8515625 C-14.53643555 16.84947754 -15.15099609 15.84739258 -15.78417969 14.81494141 C-17.17182304 11.60218482 -17.16202583 10.25838799 -16 7 C-11.37876856 1.87301147 -6.91213092 -1.02946631 0 0 Z " fill="#EFF4F8" transform="translate(215,325)"/>
<path d="M0 0 C1.4140625 1.37890625 1.4140625 1.37890625 3.2265625 3.75390625 C1.55000489 8.78357909 -3.22615361 10.43033073 -7.7734375 12.75390625 C-16.5150364 15.95915918 -28.16616185 16.46684869 -36.7734375 12.75390625 C-45.35636608 7.96212346 -45.35636608 7.96212346 -46.53125 4.55859375 C-46.61117187 3.96304687 -46.69109375 3.3675 -46.7734375 2.75390625 C-38.43579289 -5.87124335 -9.87701529 -6.94001735 0 0 Z " fill="#D28D5E" transform="translate(271.7734375,264.24609375)"/>
<path d="M0 0 C7.26 0 14.52 0 22 0 C22 9.24 22 18.48 22 28 C14.74 28 7.48 28 0 28 C0 18.76 0 9.52 0 0 Z " fill="#546676" transform="translate(276,465)"/>
<path d="M0 0 C25.74 0 51.48 0 78 0 C78 2.31 78 4.62 78 7 C52.26 7 26.52 7 0 7 C0 4.69 0 2.38 0 0 Z " fill="#566773" transform="translate(269,453)"/>
<path d="M0 0 C0.33 0 0.66 0 1 0 C1.11798604 3.77056169 1.18783864 7.54063765 1.25 11.3125 C1.30027344 12.8912793 1.30027344 12.8912793 1.3515625 14.50195312 C1.44508107 22.10033693 0.06916557 28.05458559 -3 35 C-2.01 35.33 -1.02 35.66 0 36 C0 37.65 0 39.3 0 41 C0.66 41.33 1.32 41.66 2 42 C2.40729228 44.32156597 2.74438677 46.6568787 3 49 C1 48 1 48 -0.3125 45.1875 C-2.13230867 41.75008363 -3.93392877 40.30580561 -7 38 C-6.57847656 36.84886719 -6.15695312 35.69773438 -5.72265625 34.51171875 C-1.6503156 22.86571246 -0.02758852 12.3182731 0 0 Z " fill="#65B088" transform="translate(347,141)"/>
<path d="M0 0 C1.56175024 3.12350049 0.36789538 5.58083967 -0.375 8.9375 C-3.06181971 21.07840961 -3.2448406 33.30656292 -3.5625 45.6875 C-3.60580192 47.27539933 -3.64941943 48.86329008 -3.69335938 50.45117188 C-3.79920689 54.30069221 -3.90079909 58.15030289 -4 62 C-6.475 62.495 -6.475 62.495 -9 63 C-9 62.34 -9 61.68 -9 61 C-7.68 61 -6.36 61 -5 61 C-5 46.15 -5 31.3 -5 16 C-4.34 16 -3.68 16 -3 16 C-3 12.37 -3 8.74 -3 5 C-2.34 5 -1.68 5 -1 5 C-0.67 3.35 -0.34 1.7 0 0 Z " fill="#5AA27E" transform="translate(164,118)"/>
<path d="M0 0 C0.66 0.33 1.32 0.66 2 1 C1.67 2.051875 1.34 3.10375 1 4.1875 C-2.57035767 18.85422108 0.9688242 37.11733326 7.75 50.4375 C8.1625 51.283125 8.575 52.12875 9 53 C8.67 53.66 8.34 54.32 8 55 C4.97318319 53.4865916 4.74042415 51.24411379 3.5625 48.125 C3.15128906 47.05507812 2.74007812 45.98515625 2.31640625 44.8828125 C1.86869087 43.59159788 1.43082682 42.29694738 1 41 C0.73018311 40.20561523 0.46036621 39.41123047 0.18237305 38.59277344 C-2.16044288 31.01180751 -2.42012622 23.89545984 -2.3125 16 C-2.31733398 14.18048828 -2.31733398 14.18048828 -2.32226562 12.32421875 C-2.26767734 3.40151602 -2.26767734 3.40151602 0 0 Z " fill="#6FB187" transform="translate(151,183)"/>
<path d="M0 0 C0.33 0 0.66 0 1 0 C1.05796132 4.10410755 1.09358313 8.20811016 1.125 12.3125 C1.14175781 13.47974609 1.15851563 14.64699219 1.17578125 15.84960938 C1.18222656 16.96787109 1.18867188 18.08613281 1.1953125 19.23828125 C1.20578613 20.26993408 1.21625977 21.30158691 1.22705078 22.36450195 C1 25 1 25 -1 28 C-1.36887189 30.90644244 -1.36887189 30.90644244 -1.4140625 34.19921875 C-1.45273438 35.40771484 -1.49140625 36.61621094 -1.53125 37.86132812 C-1.5621875 39.12396484 -1.593125 40.38660156 -1.625 41.6875 C-1.66367188 42.96173828 -1.70234375 44.23597656 -1.7421875 45.54882812 C-1.83657686 48.69907292 -1.9221583 51.84930991 -2 55 C-2.33 55 -2.66 55 -3 55 C-3.0503566 50.45086181 -3.08615885 45.90189434 -3.10986328 41.35253906 C-3.1197703 39.81279669 -3.13329969 38.27307233 -3.15087891 36.73339844 C-3.28914125 24.28978788 -2.58632975 12.21888072 0 0 Z " fill="#3F351B" transform="translate(163,125)"/>
<path d="M0 0 C4 4 4 4 5 7 C5.66 7.33 6.32 7.66 7 8 C6.835 8.70125 6.67 9.4025 6.5 10.125 C5.97584662 13.13888194 5.92900317 15.94713625 6 19 C5.01 19.33 4.02 19.66 3 20 C3 20.66 3 21.32 3 22 C2.34 22 1.68 22 1 22 C0.67 14.74 0.34 7.48 0 0 Z " fill="#57B093" transform="translate(428,402)"/>
<path d="M0 0 C1.8671875 0.234375 1.8671875 0.234375 4 1 C5.1953125 2.890625 5.1953125 2.890625 6.125 5.25 C6.43695313 6.01828125 6.74890625 6.7865625 7.0703125 7.578125 C7.37710938 8.37734375 7.68390625 9.1765625 8 10 C8.51771973 11.1281311 8.51771973 11.1281311 9.04589844 12.27905273 C10.1218378 15.34746219 10.22859349 17.71213517 10.1953125 20.95703125 C10.18564453 22.62475586 10.18564453 22.62475586 10.17578125 24.32617188 C10.15902344 25.47666016 10.14226562 26.62714844 10.125 27.8125 C10.11597656 28.98232422 10.10695312 30.15214844 10.09765625 31.35742188 C10.07413732 34.23849053 10.04126852 37.11913989 10 40 C12.31 40.66 14.62 41.32 17 42 C14.21176345 43.0326802 13.1322726 43.04509293 10.25 42.0625 C9.13625 41.5365625 9.13625 41.5365625 8 41 C8 39.68 8 38.36 8 37 C6.02 37 4.04 37 2 37 C2 36.67 2 36.34 2 36 C4.31 36 6.62 36 9 36 C8.86829061 25.43930192 8.07322127 16.45117048 4.05859375 6.625 C3 4 3 4 3 2 C2.01 1.67 1.02 1.34 0 1 C0 0.67 0 0.34 0 0 Z " fill="#CBB695" transform="translate(207,288)"/>
<path d="M0 0 C0.66 0.99 1.32 1.98 2 3 C1.01 3.66 0.02 4.32 -1 5 C-2.19232613 7.05003955 -2.19232613 7.05003955 -3 9 C-2.34 9.33 -1.68 9.66 -1 10 C-1.33 10.99 -1.66 11.98 -2 13 C-2.62648438 13.02578125 -3.25296875 13.0515625 -3.8984375 13.078125 C-4.71570313 13.13484375 -5.53296875 13.1915625 -6.375 13.25 C-7.18710938 13.29640625 -7.99921875 13.3428125 -8.8359375 13.390625 C-11.18442983 13.77707925 -11.18442983 13.77707925 -12.125 16 C-12.41375 16.66 -12.7025 17.32 -13 18 C-15.625 18.75 -15.625 18.75 -18 19 C-12.44964797 12.21623641 -6.23557973 6.14477032 0 0 Z " fill="#65C2A2" transform="translate(80,66)"/>
<path d="M0 0 C0 0.66 0 1.32 0 2 C-5.39459439 5.08467498 -9.79011871 6.55643705 -16 7 C-16 7.66 -16 8.32 -16 9 C-17.546875 9.12375 -17.546875 9.12375 -19.125 9.25 C-23.52975387 10.10253301 -25.48512937 11.34241489 -29 14 C-29.66 13.34 -30.32 12.68 -31 12 C-26.08649897 9.0365046 -21.27106302 6.80289397 -15.875 4.875 C-10.50181758 2.93412495 -10.50181758 2.93412495 -5.1953125 0.8203125 C-3 0 -3 0 0 0 Z " fill="#80C7B0" transform="translate(171,14)"/>
<path d="M0 0 C0.99 0.33 1.98 0.66 3 1 C4.89212737 1.22179785 6.78884472 1.40614015 8.6875 1.5625 C9.68136719 1.64628906 10.67523438 1.73007813 11.69921875 1.81640625 C12.83810547 1.90728516 12.83810547 1.90728516 14 2 C14.13277344 2.81984375 14.26554688 3.6396875 14.40234375 4.484375 C14.57894531 5.56203125 14.75554687 6.6396875 14.9375 7.75 C15.11152344 8.81734375 15.28554687 9.8846875 15.46484375 10.984375 C15.88704171 13.36347593 16.37202884 15.66915211 17 18 C13.98114341 15.50163593 12.82266386 13.63952501 11.875 9.9375 C11.27807865 7.80114799 11.27807865 7.80114799 10 6 C6.77134853 4.41445479 3.52899637 3.63561661 0 3 C0 2.01 0 1.02 0 0 Z " fill="#64B288" transform="translate(160,238)"/>
<path d="M0 0 C1.04005702 3.38018531 1.08004482 6.4780279 1 10 C0.34 10 -0.32 10 -1 10 C-1 12.97 -1 15.94 -1 19 C-1.66 19 -2.32 19 -3 19 C-3.04898437 19.61488281 -3.09796875 20.22976562 -3.1484375 20.86328125 C-3.22320312 21.67152344 -3.29796875 22.47976562 -3.375 23.3125 C-3.44460938 24.11300781 -3.51421875 24.91351563 -3.5859375 25.73828125 C-4 28 -4 28 -6 31 C-6.33613898 24.75988149 -5.0812681 19.28323305 -3.5625 13.25 C-3.21735352 11.83267578 -3.21735352 11.83267578 -2.86523438 10.38671875 C-2.00449997 6.87891419 -1.14261479 3.42784437 0 0 Z " fill="#87CBB4" transform="translate(10,179)"/>
<path d="M0 0 C0.99 0.495 0.99 0.495 2 1 C3.98121384 1.33667088 5.96981379 1.63034752 7.9609375 1.90234375 C9.75144531 2.15467773 9.75144531 2.15467773 11.578125 2.41210938 C14.10118043 2.76123587 16.62461852 3.10760853 19.1484375 3.45117188 C20.9428125 3.70543945 20.9428125 3.70543945 22.7734375 3.96484375 C23.87091309 4.1155835 24.96838867 4.26632324 26.09912109 4.42163086 C28.75559592 4.9512714 30.67311719 5.64894088 33 7 C21.98510016 7.39338928 10.11650778 6.63673273 0 2 C0 1.34 0 0.68 0 0 Z " fill="#8BCDB8" transform="translate(266,0)"/>
<path d="M0 0 C9.74217375 0.4713955 18.70060168 3.25475278 28 6 C24.83662624 6.86671772 22.5155756 6.99470854 19.25 6.5625 C18.05117188 6.40974609 18.05117188 6.40974609 16.828125 6.25390625 C16.22484375 6.17011719 15.6215625 6.08632812 15 6 C15 5.34 15 4.68 15 4 C12.03 4 9.06 4 6 4 C6 3.34 6 2.68 6 2 C4.02 2 2.04 2 0 2 C0 1.34 0 0.68 0 0 Z " fill="#7CC6AE" transform="translate(299,7)"/>
<path d="M0 0 C1.84494322 3.24027843 2.53659594 6.20447945 3.125 9.875 C3.29257813 10.88304687 3.46015625 11.89109375 3.6328125 12.9296875 C3.99827995 15.98561748 4.06424163 18.92557891 4 22 C4.66 22 5.32 22 6 22 C6 21.34 6 20.68 6 20 C6.66 20 7.32 20 8 20 C7.40049704 23.68266103 6.75241109 27.34543185 6 31 C5.67 31 5.34 31 5 31 C4.15262055 27.33643608 3.3246849 23.66873339 2.5 20 C2.26152344 18.97003906 2.02304688 17.94007813 1.77734375 16.87890625 C0.49131454 11.11014667 -0.28411906 5.90967641 0 0 Z " fill="#9AD4C0" transform="translate(4,284)"/>
<path d="M0 0 C0 0.66 0 1.32 0 2 C-0.61875 2.0825 -1.2375 2.165 -1.875 2.25 C-4.18346804 2.78810733 -4.18346804 2.78810733 -5 5 C-6 7 -6 7 -8.125 7.75 C-9.053125 7.87375 -9.053125 7.87375 -10 8 C-10 8.66 -10 9.32 -10 10 C-10.66 10 -11.32 10 -12 10 C-12.309375 10.9590625 -12.309375 10.9590625 -12.625 11.9375 C-14 14 -14 14 -17.125 14.75 C-18.548125 14.87375 -18.548125 14.87375 -20 15 C-16.83325369 10.58405979 -13.27464355 7.74910763 -8.875 4.6875 C-8.24207031 4.23310547 -7.60914062 3.77871094 -6.95703125 3.31054688 C-2.2675047 0 -2.2675047 0 0 0 Z " fill="#87CAB3" transform="translate(110,44)"/>
<path d="M0 0 C2.0625 0.4375 2.0625 0.4375 4 1 C2.68 1.33 1.36 1.66 0 2 C0.00523682 2.8878418 0.01047363 3.77568359 0.01586914 4.69042969 C0.03293868 7.99284518 0.04546363 11.29521359 0.05493164 14.59765625 C0.05995206 16.02539816 0.06676972 17.45313496 0.07543945 18.88085938 C0.08760553 20.93621079 0.09325128 22.99149407 0.09765625 25.046875 C0.10289307 26.28276367 0.10812988 27.51865234 0.11352539 28.79199219 C0.02071737 31.4145671 -0.21643327 33.51644594 -1 36 C-2.65 36 -4.3 36 -6 36 C-4.515 35.505 -4.515 35.505 -3 35 C-2.97494385 34.32533691 -2.9498877 33.65067383 -2.92407227 32.95556641 C-2.8067369 29.84524807 -2.68464473 26.73513304 -2.5625 23.625 C-2.52318359 22.56410156 -2.48386719 21.50320313 -2.44335938 20.41015625 C-1.69713458 1.69713458 -1.69713458 1.69713458 0 0 Z " fill="#C6B894" transform="translate(286,293)"/>
<path d="M0 0 C0.99 0.33 1.98 0.66 3 1 C3 1.99 3 2.98 3 4 C3.5775 4.0825 4.155 4.165 4.75 4.25 C7.76907279 5.2563576 9.08189897 6.46536649 11 9 C11.25 12.25 11.25 12.25 11 15 C11.99 15.33 12.98 15.66 14 16 C13.34 16.66 12.68 17.32 12 18 C12 17.34 12 16.68 12 16 C11.34 16 10.68 16 10 16 C10 15.01 10 14.02 10 13 C9.01 12.67 8.02 12.34 7 12 C5.17578125 9.78515625 5.17578125 9.78515625 3.3125 7.0625 C2.68988281 6.16660156 2.06726562 5.27070313 1.42578125 4.34765625 C0 2 0 2 0 0 Z " fill="#77C3AA" transform="translate(44,391)"/>
<path d="M0 0 C0 0.66 0 1.32 0 2 C-0.84304687 2.12117187 -1.68609375 2.24234375 -2.5546875 2.3671875 C-3.65039062 2.53476563 -4.74609375 2.70234375 -5.875 2.875 C-7.51082031 3.11863281 -7.51082031 3.11863281 -9.1796875 3.3671875 C-12.11932714 3.76256513 -12.11932714 3.76256513 -14 6 C-14.66 6 -15.32 6 -16 6 C-18.01850623 6.55712486 -20.02323965 7.15096229 -22.02734375 7.7578125 C-24 8 -24 8 -27 6 C-8.41747573 0 -8.41747573 0 0 0 Z " fill="#89CDB7" transform="translate(205,5)"/>
<path d="M0 0 C0.33 1.32 0.66 2.64 1 4 C0.34 4 -0.32 4 -1 4 C-0.67 4.99 -0.34 5.98 0 7 C-0.5625 10.5 -0.5625 10.5 -2 14 C-5.125 15.9375 -5.125 15.9375 -8 17 C-6.59441952 10.53432978 -3.54628896 5.54247048 0 0 Z " fill="#6EC2A5" transform="translate(31,130)"/>
<path d="M0 0 C1.32 0 2.64 0 4 0 C4 0.66 4 1.32 4 2 C7.63 2 11.26 2 15 2 C15.12375 4.0109375 15.12375 4.0109375 15.25 6.0625 C15.60914218 9.52332463 16.27006498 11.87018928 18.125 14.8125 C20 18 20 18 19.6171875 20.19921875 C19.41351563 20.79347656 19.20984375 21.38773437 19 22 C15.1258097 15.3723673 13.3787992 10.70288993 14 3 C12.86111328 3.05220703 12.86111328 3.05220703 11.69921875 3.10546875 C10.70535156 3.13253906 9.71148437 3.15960938 8.6875 3.1875 C7.70136719 3.22230469 6.71523437 3.25710937 5.69921875 3.29296875 C3 3 3 3 1.14453125 1.48828125 C0.76683594 0.99714844 0.38914063 0.50601563 0 0 Z " fill="#D3BB8D" transform="translate(160,237)"/>
<path d="M0 0 C0.33 0 0.66 0 1 0 C1.08751413 3.87485635 1.14056435 7.74945643 1.1875 11.625 C1.21263672 12.71941406 1.23777344 13.81382812 1.26367188 14.94140625 C1.35726296 25.23642592 1.35726296 25.23642592 -2 30 C-2.66 30.33 -3.32 30.66 -4 31 C-3.69255859 30.03126953 -3.69255859 30.03126953 -3.37890625 29.04296875 C-0.62908507 19.42517315 -0.30184987 9.95063703 0 0 Z " fill="#5E9F7D" transform="translate(347,141)"/>
<path d="M0 0 C1.0326802 2.78823655 1.04509293 3.8677274 0.0625 6.75 C-0.288125 7.4925 -0.63875 8.235 -1 9 C-1.66 9 -2.32 9 -3 9 C-3.73832608 13.32448133 -4.39174965 17.65535464 -5 22 C-5.99 22.33 -6.98 22.66 -8 23 C-7.43891443 17.59955136 -6.09252222 13.11941624 -4 8.125 C-3.72671875 7.44953125 -3.4534375 6.7740625 -3.171875 6.078125 C-1.15529337 1.15529337 -1.15529337 1.15529337 0 0 Z " fill="#413F26" transform="translate(172,101)"/>
<path d="M0 0 C0 0.33 0 0.66 0 1 C-0.96099609 1.25523437 -0.96099609 1.25523437 -1.94140625 1.515625 C-7.5238663 3.07971217 -12.04952036 5.00908522 -17 8 C-17.66 8 -18.32 8 -19 8 C-18.9375 6.1875 -18.9375 6.1875 -18 4 C-11.93883323 0.85285572 -6.75526396 -0.15709916 0 0 Z " fill="#D7AA8D" transform="translate(279,329)"/>
<path d="M0 0 C12.52788462 -0.37211538 12.52788462 -0.37211538 14.91796875 1.51171875 C15.27503906 2.00285156 15.63210938 2.49398437 16 3 C15.34 2.835 14.68 2.67 14 2.5 C11.47750915 2.07958486 9.34820768 1.9630498 6.8125 2 C3 2 3 2 1 1 C1 7.27 1 13.54 1 20 C0.67 20 0.34 20 0 20 C0 13.4 0 6.8 0 0 Z " fill="#D4A27B" transform="translate(329,180)"/>
<path d="M0 0 C-1.375 1.5 -1.375 1.5 -3 3 C-3.66 3 -4.32 3 -5 3 C-5 6.96 -5 10.92 -5 15 C-5.33 15 -5.66 15 -6 15 C-6.33 11.7 -6.66 8.4 -7 5 C-9.31 4.34 -11.62 3.68 -14 3 C-9.18448679 0.42026078 -5.47161276 -0.12435484 0 0 Z " fill="#22322F" transform="translate(192,337)"/>
<path d="M0 0 C0 3.69834896 -0.81364222 4.27081428 -3.25 6.9375 C-3.88550781 7.63746094 -4.52101563 8.33742188 -5.17578125 9.05859375 C-7.07727446 11.08223855 -8.99660415 13.07673998 -11 15 C-11.99 14.67 -12.98 14.34 -14 14 C-13.0479279 12.99403703 -12.08812654 11.99538437 -11.125 11 C-10.32449219 10.1646875 -10.32449219 10.1646875 -9.5078125 9.3125 C-8 8 -8 8 -6 8 C-5.7525 7.4225 -5.505 6.845 -5.25 6.25 C-3.83316683 3.6997003 -2.12372463 1.98214299 0 0 Z " fill="#252629" transform="translate(294,416)"/>
<path d="M0 0 C1.89168696 5.68867015 0.55213348 12.80130666 -2.02734375 18.1171875 C-3.125 19.75 -3.125 19.75 -5 22 C-5.66 21.67 -6.32 21.34 -7 21 C-6.66226562 20.154375 -6.32453125 19.30875 -5.9765625 18.4375 C-3.57803795 12.33720636 -1.38270898 6.41074164 0 0 Z " fill="#71B388" transform="translate(348,216)"/>
<path d="M0 0 C0.33 0 0.66 0 1 0 C1.34833144 4.87664009 0.41685712 7.77050005 -2 12 C-2.66 12 -3.32 12 -4 12 C-4.12375 12.7425 -4.2475 13.485 -4.375 14.25 C-4.95486701 16.80141485 -5.73708739 18.7267573 -7 21 C-7.33 20.34 -7.66 19.68 -8 19 C-7.13661567 16.48351463 -6.2146408 14.07344398 -5.1875 11.625 C-4.91357422 10.95210937 -4.63964844 10.27921875 -4.35742188 9.5859375 C-3.0202036 6.32787092 -1.63910988 3.11830661 0 0 Z " fill="#93D2BD" transform="translate(22,147)"/>
<path d="M0 0 C5.625 -0.25 5.625 -0.25 9 2 C9.763125 2 10.52625 2 11.3125 2 C14.59668795 2 16.99263617 2.70136562 20 4 C20.33 4.99 20.66 5.98 21 7 C18.43635601 6.37942343 15.87415074 5.75370801 13.3125 5.125 C12.59126953 4.95097656 11.87003906 4.77695312 11.12695312 4.59765625 C7.27971155 3.64902134 3.64284431 2.59509159 0 1 C0 0.67 0 0.34 0 0 Z " fill="#4C9D82" transform="translate(369,347)"/>
<path d="M0 0 C2.97 0.495 2.97 0.495 6 1 C-0.32453722 4.68931338 -6.87262743 5.25454902 -14 5 C-10.31035266 2.54023511 -8.72571521 1.87534693 -4.375 1.9375 C-3.14910156 1.95103516 -3.14910156 1.95103516 -1.8984375 1.96484375 C-0.95871094 1.98224609 -0.95871094 1.98224609 0 2 C0 1.34 0 0.68 0 0 Z " fill="#4E9E83" transform="translate(176,337)"/>
<path d="M0 0 C5.01508715 1.54058233 9.6147081 3.02931839 14 6 C13.01 6.99 12.02 7.98 11 9 C10.67 8.01 10.34 7.02 10 6 C9.01 6.33 8.02 6.66 7 7 C7 6.01 7 5.02 7 4 C4.03 3.505 4.03 3.505 1 3 C0.67 2.01 0.34 1.02 0 0 Z " fill="#41341D" transform="translate(288,65)"/>
<path d="M0 0 C3.63 0 7.26 0 11 0 C11 0.33 11 0.66 11 1 C8.36 1 5.72 1 3 1 C2.67 2.32 2.34 3.64 2 5 C1.34 5 0.68 5 0 5 C0 6.65 0 8.3 0 10 C-0.66 10 -1.32 10 -2 10 C-1.125 2.25 -1.125 2.25 0 0 Z " fill="#6BB38A" transform="translate(327,240)"/>
<path d="M0 0 C2.90241675 2.63856068 4.79754901 5.12177724 5.22705078 9.10644531 C5.21657715 9.83959961 5.20610352 10.57275391 5.1953125 11.328125 C5.18886719 12.12734375 5.18242187 12.9265625 5.17578125 13.75 C5.15902344 14.575 5.14226562 15.4 5.125 16.25 C5.11597656 17.09046875 5.10695313 17.9309375 5.09765625 18.796875 C5.07415817 20.86470604 5.03828908 22.93238995 5 25 C4.67 25 4.34 25 4 25 C3.92652344 23.30230469 3.92652344 23.30230469 3.8515625 21.5703125 C3.77653486 20.08851661 3.70098703 18.606747 3.625 17.125 C3.57859375 16.00544922 3.57859375 16.00544922 3.53125 14.86328125 C3.44356169 10.46526812 3.44356169 10.46526812 1 7 C0.59952556 4.67724823 0.2602896 2.34260643 0 0 Z " fill="#CDB98F" transform="translate(345,183)"/>
<path d="M0 0 C1.73694677 2.60542016 2.69100448 4.58342775 3.6875 7.5 C3.95949219 8.2734375 4.23148437 9.046875 4.51171875 9.84375 C5 12 5 12 4 15 C4 14.34 4 13.68 4 13 C3.34 13 2.68 13 2 13 C1.731875 12.195625 1.46375 11.39125 1.1875 10.5625 C0.795625 9.716875 0.40375 8.87125 0 8 C-0.99 7.67 -1.98 7.34 -3 7 C-3 5.68 -3 4.36 -3 3 C-2.34 3 -1.68 3 -1 3 C-0.67 3.33 -0.34 3.66 0 4 C0 2.68 0 1.36 0 0 Z " fill="#84CEB6" transform="translate(485,168)"/>
<path d="M0 0 C-0.56371414 3.26954202 -1.49962266 4.82575883 -4 7 C-4.66 6.34 -5.32 5.68 -6 5 C-6 5.99 -6 6.98 -6 8 C-7.65 7.67 -9.3 7.34 -11 7 C-4.48275862 0 -4.48275862 0 0 0 Z " fill="#72C5A9" transform="translate(121,37)"/>
<path d="M0 0 C0.99 0.33 1.98 0.66 3 1 C3 2.98 3 4.96 3 7 C-1.455 6.01 -1.455 6.01 -6 5 C-5.195625 4.360625 -4.39125 3.72125 -3.5625 3.0625 C-1.7249496 1.59396498 -1.7249496 1.59396498 0 0 Z " fill="#E2A67B" transform="translate(197,166)"/>
<path d="M0 0 C2.50082903 3.75124354 3.12433355 5.36063131 3.09765625 9.7890625 C3.09443359 10.73007813 3.09121094 11.67109375 3.08789062 12.640625 C3.07951172 13.62546875 3.07113281 14.6103125 3.0625 15.625 C3.05798828 16.61757812 3.05347656 17.61015625 3.04882812 18.6328125 C3.03702145 21.0886016 3.020554 23.54427104 3 26 C2.67 26 2.34 26 2 26 C2 19.73 2 13.46 2 7 C1.34 7 0.68 7 0 7 C0 4.69 0 2.38 0 0 Z " fill="#56B087" transform="translate(346,134)"/>
<path d="M0 0 C-0.66 0.66 -1.32 1.32 -2 2 C-2.99 1.67 -3.98 1.34 -5 1 C-5 1.66 -5 2.32 -5 3 C-10.02125926 3.77916092 -13.97703996 4.13016601 -19 3 C-19 2.67 -19 2.34 -19 2 C-12.56971459 0.67611771 -6.5705166 -0.24794402 0 0 Z " fill="#8FCFBA" transform="translate(224,2)"/>
<path d="M0 0 C1.7435756 3.11930825 2.54645178 5.99110451 3.1875 9.5 C3.36667969 10.4384375 3.54585938 11.376875 3.73046875 12.34375 C3.99098064 14.91111354 3.80670869 16.57415258 3 19 C0.53671002 16.53671002 0.6745935 15.52502169 0.4375 12.125 C0.25321972 9.6052492 0.08417097 7.30435331 -0.58984375 4.8671875 C-1 3 -1 3 0 0 Z " fill="#97D2BE" transform="translate(494,201)"/>
<path d="M0 0 C2.31 0.33 4.62 0.66 7 1 C6.01 2.485 6.01 2.485 5 4 C4.34 4 3.68 4 3 4 C3 4.66 3 5.32 3 6 C2.34 6 1.68 6 1 6 C0.67 6.66 0.34 7.32 0 8 C-1.09658936 4.71023192 -0.79953138 3.28696233 0 0 Z " fill="#504F4F" transform="translate(421,425)"/>
<path d="M0 0 C-1.14656875 3.43970626 -1.84518278 3.8782229 -4.8125 5.75 C-5.49957031 6.19859375 -6.18664062 6.6471875 -6.89453125 7.109375 C-9.39934831 8.16892656 -10.49281235 7.92399724 -13 7 C-11.21190303 5.82786955 -9.41940875 4.66244474 -7.625 3.5 C-6.62726563 2.8503125 -5.62953125 2.200625 -4.6015625 1.53125 C-2 0 -2 0 0 0 Z " fill="#F7EBE1" transform="translate(269,333)"/>
<path d="M0 0 C0.33 0 0.66 0 1 0 C1.22331199 1.58129029 1.42804644 3.16521089 1.625 4.75 C1.74101562 5.63171875 1.85703125 6.5134375 1.9765625 7.421875 C2.00207817 10.22859878 1.44843844 11.63384866 0 14 C-2.31 13.34 -4.62 12.68 -7 12 C-7 11.67 -7 11.34 -7 11 C-4.69 11 -2.38 11 0 11 C0 7.37 0 3.74 0 0 Z " fill="#DBA578" transform="translate(178,198)"/>
<path d="M0 0 C1.67542976 0.28604898 3.34385343 0.61781233 5 1 C3.625 3 3.625 3 2 5 C1.34 5 0.68 5 0 5 C-0.33 5.99 -0.66 6.98 -1 8 C-1.66 8 -2.32 8 -3 8 C-1.125 1.125 -1.125 1.125 0 0 Z " fill="#5CB79E" transform="translate(199,327)"/>
<path d="M0 0 C3.92488093 3.70060202 7.02215543 7.4906925 10 12 C10 12.66 10 13.32 10 14 C8.1875 13.9375 8.1875 13.9375 6 13 C4.91698965 10.70401807 3.92203709 8.36522558 3 6 C2.01755155 4.65368175 1.02323436 3.31558703 0 2 C0 1.34 0 0.68 0 0 Z " fill="#404128" transform="translate(319,87)"/>
<path d="M0 0 C1 3 1 3 1 6 C0.01 7.485 0.01 7.485 -1 9 C-1 8.34 -1 7.68 -1 7 C-1.66 7 -2.32 7 -3 7 C-3.33 7.99 -3.66 8.98 -4 10 C-4.99 10 -5.98 10 -7 10 C-7 9.34 -7 8.68 -7 8 C-6.34 8 -5.68 8 -5 8 C-4.731875 7.4225 -4.46375 6.845 -4.1875 6.25 C-2.98280141 3.9674132 -1.59201885 2.0262058 0 0 Z " fill="#84CDB5" transform="translate(61,85)"/>
<path d="M0 0 C2.74277578 3.19990508 4.6302836 6.00499382 6 10 C3 10 3 10 1.3125 8.9375 C-0.65926927 6.02679298 -0.19356822 3.41970529 0 0 Z " fill="#78C6AD" transform="translate(458,113)"/>
<path d="M0 0 C3.33557632 2.9905167 5.15083921 5.93184627 7 10 C6.34 10 5.68 10 5 10 C5 9.34 5 8.68 5 8 C3.68 8 2.36 8 1 8 C-1.125 3.375 -1.125 3.375 0 0 Z " fill="#7EC8B0" transform="translate(445,94)"/>
<path d="M0 0 C0.33 0.66 0.66 1.32 1 2 C0.02616054 3.68208635 -0.97695052 5.34738161 -2 7 C-2.69579454 9.19130534 -2.69579454 9.19130534 -3 11 C-4.32 10.34 -5.64 9.68 -7 9 C-4.69 6.03 -2.38 3.06 0 0 Z " fill="#423A20" transform="translate(183,85)"/>
<path d="M0 0 C0.99 0.33 1.98 0.66 3 1 C3 2.66666667 3 4.33333333 3 6 C-2.94 4.515 -2.94 4.515 -9 3 C-9 2.67 -9 2.34 -9 2 C-6.94921875 1.77213542 -4.8984375 1.54427083 -2.84765625 1.31640625 C-0.98859771 1.18113386 -0.98859771 1.18113386 0 0 Z " fill="#53A982" transform="translate(283,58)"/>
<path d="M0 0 C0.99 0.33 1.98 0.66 3 1 C4.89212737 1.22179785 6.78884472 1.40614015 8.6875 1.5625 C9.68136719 1.64628906 10.67523438 1.73007813 11.69921875 1.81640625 C12.83810547 1.90728516 12.83810547 1.90728516 14 2 C14 4.64 14 7.28 14 10 C13.67 10 13.34 10 13 10 C12.67 8.02 12.34 6.04 12 4 C8.04 3.67 4.08 3.34 0 3 C0 2.01 0 1.02 0 0 Z " fill="#8AB68A" transform="translate(160,238)"/>
<path d="M0 0 C1 2 1 2 0.1875 5 C-1 8 -1 8 -3 10 C-3.99 10 -4.98 10 -6 10 C-4.34832443 6.4213696 -2.21713508 3.25179812 0 0 Z " fill="#91CEBB" transform="translate(52,96)"/>
<path d="M0 0 C0 0.99 0 1.98 0 3 C-0.969375 3.474375 -1.93875 3.94875 -2.9375 4.4375 C-5.80477437 5.70193947 -5.80477437 5.70193947 -7 7 C-8.66617115 7.04063832 -10.33388095 7.042721 -12 7 C-3.55172414 0 -3.55172414 0 0 0 Z " fill="#81C9B2" transform="translate(133,30)"/>
<path d="M0 0 C10.55808656 0.96355353 10.55808656 0.96355353 15 2 C15 2.33 15 2.66 15 3 C10.545 3.495 10.545 3.495 6 4 C6 3.34 6 2.68 6 2 C4.02 2 2.04 2 0 2 C0 1.34 0 0.68 0 0 Z " fill="#85CCB6" transform="translate(299,7)"/>
<path d="M0 0 C0.8125 1.625 0.8125 1.625 1 4 C-1.3125 7.25 -1.3125 7.25 -4 10 C-4.66 10 -5.32 10 -6 10 C-4.6302836 6.00499382 -2.74277578 3.19990508 0 0 Z " fill="#173027" transform="translate(85,374)"/>
<path d="M0 0 C2.64 0 5.28 0 8 0 C7.67 1.98 7.34 3.96 7 6 C1.125 2.25 1.125 2.25 0 0 Z " fill="#D3B688" transform="translate(199,282)"/>
<path d="M0 0 C5.93892036 2.26244585 8.58337766 5.89929786 12 11 C8.81293058 9.56438314 6.37830895 7.79733671 3.75 5.5 C3.04359375 4.8915625 2.3371875 4.283125 1.609375 3.65625 C0 2 0 2 0 0 Z " fill="#AEB88A" transform="translate(187,271)"/>
<path d="M0 0 C2.83022801 0.36397611 3.90783172 0.90764775 5.95703125 2.9609375 C6.87548828 4.15589844 6.87548828 4.15589844 7.8125 5.375 C8.43769531 6.16648437 9.06289063 6.95796875 9.70703125 7.7734375 C10.13371094 8.50820312 10.56039063 9.24296875 11 10 C10.67 10.99 10.34 11.98 10 13 C8.70681744 11.3970551 7.41550844 9.79259858 6.125 8.1875 C5.40570313 7.29417969 4.68640625 6.40085937 3.9453125 5.48046875 C2 3 2 3 0 0 Z " fill="#5E9F7C" transform="translate(316,83)"/>
<path d="M0 0 C2.04119788 1.61594832 4.04072937 3.2856382 6 5 C6 5.66 6 6.32 6 7 C6.66 7 7.32 7 8 7 C7.67 7.99 7.34 8.98 7 10 C2.57320993 8.52440331 2.08567304 6.09942632 0 2 C0 1.34 0 0.68 0 0 Z " fill="#7AC8AF" transform="translate(423,69)"/>
<path d="M0 0 C0.66 0.33 1.32 0.66 2 1 C0.02 4.63 -1.96 8.26 -4 12 C-5.11841676 8.64474971 -4.91538821 8.02910146 -3.6875 4.875 C-3.42324219 4.17117188 -3.15898437 3.46734375 -2.88671875 2.7421875 C-2 1 -2 1 0 0 Z " fill="#E2E4EA" transform="translate(286,359)"/>
<path d="M0 0 C4.75481646 0.57634139 7.97048212 2.55068521 12 5 C11.67 5.66 11.34 6.32 11 7 C7.37 5.35 3.74 3.7 0 2 C0 1.34 0 0.68 0 0 Z " fill="#F8EEE5" transform="translate(236,337)"/>
<path d="M0 0 C0.99 0.33 1.98 0.66 3 1 C0.86793788 5.67239145 -1.02502456 9.59287819 -5 13 C-4.67 11.35 -4.34 9.7 -4 8 C-3.34 8 -2.68 8 -2 8 C-1.34 5.36 -0.68 2.72 0 0 Z " fill="#D3BA8D" transform="translate(316,260)"/>
<path d="M0 0 C0.33 0 0.66 0 1 0 C1.25028811 1.58013217 1.47440946 3.16442306 1.6875 4.75 C1.87892578 6.07257813 1.87892578 6.07257813 2.07421875 7.421875 C1.98397191 10.55676517 1.07384637 11.71823587 -1 14 C-1.18451025 4.58997722 -1.18451025 4.58997722 0 0 Z " fill="#86CAB5" transform="translate(3,210)"/>
<path d="M0 0 C0.33 0 0.66 0 1 0 C1.21755666 5.4389165 1.10428384 9.87080814 -1 15 C-1.33 15 -1.66 15 -2 15 C-2.22577402 9.5814234 -1.46670113 5.22512279 0 0 Z " fill="#8FD1BC" transform="translate(6,195)"/>
<path d="M0 0 C0.66 0 1.32 0 2 0 C0.76736651 3.69790046 -0.20052451 3.9354846 -3.5625 5.6875 C-4.80193359 6.34298828 -4.80193359 6.34298828 -6.06640625 7.01171875 C-6.70449219 7.33785156 -7.34257812 7.66398438 -8 8 C-8.33 7.34 -8.66 6.68 -9 6 C-8.01 6 -7.02 6 -6 6 C-5.67 4.68 -5.34 3.36 -5 2 C-3.35 2 -1.7 2 0 2 C0 1.34 0 0.68 0 0 Z " fill="#5F2E0F" transform="translate(244,134)"/>
<path d="M0 0 C-1 2 -1 2 -3.75 2.9375 C-4.8225 3.288125 -5.895 3.63875 -7 4 C-8.69207001 4.9563874 -10.36816893 5.94410931 -12 7 C-12.66 6.34 -13.32 5.68 -14 5 C-2.97297297 -1.48648649 -2.97297297 -1.48648649 0 0 Z " fill="#98D2BE" transform="translate(154,21)"/>
<path d="M0 0 C3.26954202 0.56371414 4.82575883 1.49962266 7 4 C6.34 5.65 5.68 7.3 5 9 C4.67 8.01 4.34 7.02 4 6 C4.33 5.34 4.66 4.68 5 4 C3.35 3.67 1.7 3.34 0 3 C0 2.01 0 1.02 0 0 Z " fill="#E2EFF0" transform="translate(295,331)"/>
<path d="M0 0 C4.43458973 1.3937282 6.87378374 3.60582235 10 7 C4.5388601 6.03108808 4.5388601 6.03108808 2 5 C0.5 2.375 0.5 2.375 0 0 Z " fill="#90D1BD" transform="translate(389,42)"/>
<path d="M0 0 C0.66 0 1.32 0 2 0 C1.40049704 3.68266103 0.75241109 7.34543185 0 11 C-0.33 11 -0.66 11 -1 11 C-1.33 8.03 -1.66 5.06 -2 2 C-1.34 2 -0.68 2 0 2 C0 1.34 0 0.68 0 0 Z " fill="#77C5AC" transform="translate(10,304)"/>
<path d="M0 0 C0.66 0.33 1.32 0.66 2 1 C1.319375 2.0828125 1.319375 2.0828125 0.625 3.1875 C-0.85494358 5.74894081 -1.97217539 8.23277989 -3 11 C-3.33 11 -3.66 11 -4 11 C-4.36630156 7.06225823 -4.30233203 5.43460229 -2 2.125 C-1.34 1.42375 -0.68 0.7225 0 0 Z " fill="#C7B991" transform="translate(155,181)"/>
<path d="M0 0 C2.73704754 2.73704754 3.16182449 5.26044774 4 9 C3.625 11.4375 3.625 11.4375 3 13 C0.41073669 10.41073669 0.62601957 8.97294721 0.375 5.375 C0.30023438 4.37210938 0.22546875 3.36921875 0.1484375 2.3359375 C0.09945313 1.56507812 0.05046875 0.79421875 0 0 Z " fill="#42442C" transform="translate(342,125)"/>
<path d="M0 0 C2.74277578 3.19990508 4.6302836 6.00499382 6 10 C5.34 10 4.68 10 4 10 C4 9.01 4 8.02 4 7 C2.68 6.67 1.36 6.34 0 6 C0 4.02 0 2.04 0 0 Z " fill="#403920" transform="translate(331,104)"/>
<path d="M0 0 C-5.445 2.475 -5.445 2.475 -11 5 C-11.33 4.34 -11.66 3.68 -12 3 C-11.34 3 -10.68 3 -10 3 C-10 2.34 -10 1.68 -10 1 C-5.8922935 -0.58706842 -4.40767604 -1.10191901 0 0 Z " fill="#5CA984" transform="translate(214,66)"/>
<path d="M0 0 C2.5 1.375 2.5 1.375 5 3 C5 3.66 5 4.32 5 5 C5.99 5.33 6.98 5.66 8 6 C7.67 6.66 7.34 7.32 7 8 C4.69 7.34 2.38 6.68 0 6 C0 4.02 0 2.04 0 0 Z " fill="#90CFBA" transform="translate(409,56)"/>
<path d="M0 0 C1.32 0 2.64 0 4 0 C3.375 1.9375 3.375 1.9375 2 4 C-1.125 4.75 -1.125 4.75 -4 5 C-2.25 2.5 -2.25 2.5 0 0 Z " fill="#72C6AA" transform="translate(94,54)"/>
<path d="M0 0 C0.99 0.33 1.98 0.66 3 1 C2.02433888 2.16959987 1.044375 3.33561177 0.0625 4.5 C-0.48277344 5.1496875 -1.02804687 5.799375 -1.58984375 6.46875 C-2.05519531 6.9740625 -2.52054687 7.479375 -3 8 C-3.33 8 -3.66 8 -4 8 C-4 6.35 -4 4.7 -4 3 C-3.34 3 -2.68 3 -2 3 C-2 2.34 -2 1.68 -2 1 C-1.34 0.67 -0.68 0.34 0 0 Z " fill="#8ACCB6" transform="translate(441,409)"/>
<path d="M0 0 C0.99 0 1.98 0 3 0 C3.33 3.3 3.66 6.6 4 10 C3.34 9.67 2.68 9.34 2 9 C1.3671875 6.93359375 1.3671875 6.93359375 0.875 4.4375 C0.70742187 3.61121094 0.53984375 2.78492188 0.3671875 1.93359375 C0.24601563 1.29550781 0.12484375 0.65742188 0 0 Z " fill="#87A2B5" transform="translate(234,409)"/>
<path d="M0 0 C0.99 0.33 1.98 0.66 3 1 C3 1.99 3 2.98 3 4 C3.66 4 4.32 4 5 4 C5 5.65 5 7.3 5 9 C5.66 9.33 6.32 9.66 7 10 C6.01 10 5.02 10 4 10 C3.32845067 8.71086513 2.66291141 7.41859796 2 6.125 C1.62875 5.40570313 1.2575 4.68640625 0.875 3.9453125 C0 2 0 2 0 0 Z " fill="#8DCDB8" transform="translate(30,367)"/>
<path d="M0 0 C2.475 0.99 2.475 0.99 5 2 C5 2.66 5 3.32 5 4 C3.37373596 5.38232443 1.7074998 6.71937515 0 8 C0.33 6.02 0.66 4.04 1 2 C0.34 1.67 -0.32 1.34 -1 1 C-0.67 0.67 -0.34 0.34 0 0 Z " fill="#92B5C9" transform="translate(259,351)"/>
<path d="M0 0 C0.66 0 1.32 0 2 0 C1.33333333 4.66666667 0.66666667 9.33333333 0 14 C-0.33 14 -0.66 14 -1 14 C-1.33 11.03 -1.66 8.06 -2 5 C-1.34 5 -0.68 5 0 5 C0 3.35 0 1.7 0 0 Z " fill="#8CD2BA" transform="translate(493,291)"/>
<path d="M0 0 C0.99 0.33 1.98 0.66 3 1 C3 1.99 3 2.98 3 4 C3.639375 4.12375 4.27875 4.2475 4.9375 4.375 C5.618125 4.58125 6.29875 4.7875 7 5 C7.33 5.66 7.66 6.32 8 7 C7.34 7 6.68 7 6 7 C5.67 7.66 5.34 8.32 5 9 C4.16094435 7.87926138 3.32892169 6.75325453 2.5 5.625 C2.0359375 4.99851562 1.571875 4.37203125 1.09375 3.7265625 C0 2 0 2 0 0 Z " fill="#8ED1BA" transform="translate(44,391)"/>
<path d="M0 0 C3 0 3 0 5 1 C1.535 3.97 1.535 3.97 -2 7 C-1.125 1.125 -1.125 1.125 0 0 Z " fill="#D3DDE5" transform="translate(262,355)"/>
<path d="M0 0 C0.99 0.33 1.98 0.66 3 1 C1.34832443 4.5786304 -0.78286492 7.74820188 -3 11 C-3 8.04725901 -2.56108169 6.50941597 -1.5 3.8125 C-1.2215625 3.09707031 -0.943125 2.38164062 -0.65625 1.64453125 C-0.33140625 0.83048828 -0.33140625 0.83048828 0 0 Z " fill="#59B696" transform="translate(18,159)"/>
<path d="M0 0 C1.98 0.99 1.98 0.99 4 2 C4 2.99 4 3.98 4 5 C4.99 5.33 5.98 5.66 7 6 C6.34 7.32 5.68 8.64 5 10 C3.35 6.7 1.7 3.4 0 0 Z " fill="#57AB84" transform="translate(327,96)"/>
<path d="M0 0 C0.66 0.99 1.32 1.98 2 3 C0.25 5.0625 0.25 5.0625 -2 7 C-3.32 6.67 -4.64 6.34 -6 6 C-4.02 4.02 -2.04 2.04 0 0 Z " fill="#90D0BB" transform="translate(80,66)"/>
<path d="M0 0 C0.33 0.66 0.66 1.32 1 2 C0.06421005 4.35981813 -0.93347808 6.69631264 -2 9 C-2.99 8.67 -3.98 8.34 -5 8 C-4.67 7.01 -4.34 6.02 -4 5 C-3.34 5 -2.68 5 -2 5 C-1.7834375 4.0409375 -1.7834375 4.0409375 -1.5625 3.0625 C-1 1 -1 1 0 0 Z " fill="#849DB3" transform="translate(254,437)"/>
<path d="M0 0 C1.65 0 3.3 0 5 0 C3.68 2.31 2.36 4.62 1 7 C0.31292445 4.50935112 0 2.62113708 0 0 Z " fill="#8BCFB7" transform="translate(450,394)"/>
<path d="M0 0 C1.9375 0.625 1.9375 0.625 4 2 C4.75 5.125 4.75 5.125 5 8 C2.20127563 5.47211993 0.54226981 3.79588866 0 0 Z " fill="#8FCFBB" transform="translate(39,383)"/>
<path d="M0 0 C3 1 3 1 4.6875 3.9375 C6 7 6 7 6 9 C5.34 9 4.68 9 4 9 C0 2.25 0 2.25 0 0 Z " fill="#93B6CA" transform="translate(240,358)"/>
<path d="M0 0 C0.66 0 1.32 0 2 0 C0.25 7.75 0.25 7.75 -2 10 C-2.17942163 6.05272412 -2.09350689 3.4019487 0 0 Z " fill="#86CBB5" transform="translate(485,325)"/>
<path d="M0 0 C0.99 0.33 1.98 0.66 3 1 C-0.465 3.97 -0.465 3.97 -4 7 C-4 5.68 -4 4.36 -4 3 C-2.1875 1.1875 -2.1875 1.1875 0 0 Z " fill="#E3B68E" transform="translate(300,281)"/>
<path d="M0 0 C3.77545388 1.09068668 6.47043472 1.9083091 9 5 C5.625 4.75 5.625 4.75 2 4 C0.5625 1.9375 0.5625 1.9375 0 0 Z " fill="#93D1BC" transform="translate(362,27)"/>
<path d="M0 0 C2.0625 1.6875 2.0625 1.6875 4 4 C3.75 6.75 3.75 6.75 3 9 C2.67 8.01 2.34 7.02 2 6 C1.34 6 0.68 6 0 6 C0 4.02 0 2.04 0 0 Z " fill="#4EAD8D" transform="translate(428,402)"/>
<path d="M0 0 C0.66 0 1.32 0 2 0 C1.67 0.78375 1.34 1.5675 1 2.375 C-0.11866511 4.84332497 -0.11866511 4.84332497 0 7 C-1.98 7.99 -1.98 7.99 -4 9 C-2.94124926 5.59687262 -1.99097846 2.98646769 0 0 Z " fill="#63666F" transform="translate(293,349)"/>
<path d="M0 0 C0.33 0.66 0.66 1.32 1 2 C1.66 2.33 2.32 2.66 3 3 C1.35 4.32 -0.3 5.64 -2 7 C-2.33 6.34 -2.66 5.68 -3 5 C-1.5625 2.375 -1.5625 2.375 0 0 Z " fill="#545660" transform="translate(297,343)"/>
<path d="M0 0 C0.33 0.66 0.66 1.32 1 2 C0.06421005 4.35981813 -0.93347808 6.69631264 -2 9 C-2.33 9 -2.66 9 -3 9 C-3.36923077 3.46153846 -3.36923077 3.46153846 -1.5 1.125 C-1.005 0.75375 -0.51 0.3825 0 0 Z " fill="#83CCB4" transform="translate(476,352)"/>
<path d="M0 0 C0.33 1.32 0.66 2.64 1 4 C0.34 4 -0.32 4 -1 4 C-0.67 4.99 -0.34 5.98 0 7 C-1.32 7.33 -2.64 7.66 -4 8 C-2.87548273 5.0280615 -1.77706209 2.66559313 0 0 Z " fill="#84CDB5" transform="translate(31,130)"/>
<path d="M0 0 C1 2 1 2 0.375 4.0625 C-1 6 -1 6 -3.625 6.75 C-4.800625 6.87375 -4.800625 6.87375 -6 7 C-4.02 4.69 -2.04 2.38 0 0 Z " fill="#A2D6C6" transform="translate(68,78)"/>
</svg>
